<mxfile>
    <diagram id="MOUqtgxuu0NFKHcXjXrR" name="Page-1">
        <mxGraphModel dx="810" dy="311" grid="1" gridSize="10" guides="1" tooltips="1" connect="1" arrows="1" fold="1" page="1" pageScale="1" pageWidth="850" pageHeight="1100" math="0" shadow="0">
            <root>
                <mxCell id="0"/>
                <mxCell id="1" parent="0"/>
                <mxCell id="5" style="edgeStyle=orthogonalEdgeStyle;rounded=0;orthogonalLoop=1;jettySize=auto;html=1;exitX=0.5;exitY=1;exitDx=0;exitDy=0;entryX=0.5;entryY=0;entryDx=0;entryDy=0;endArrow=none;endFill=0;" edge="1" parent="1">
                    <mxGeometry relative="1" as="geometry">
                        <mxPoint x="420" y="480" as="sourcePoint"/>
                        <mxPoint x="420" y="520" as="targetPoint"/>
                    </mxGeometry>
                </mxCell>
                <mxCell id="8" style="edgeStyle=orthogonalEdgeStyle;rounded=0;orthogonalLoop=1;jettySize=auto;html=1;exitX=0.5;exitY=1;exitDx=0;exitDy=0;entryX=0.5;entryY=0;entryDx=0;entryDy=0;endArrow=none;endFill=0;" edge="1" parent="1">
                    <mxGeometry relative="1" as="geometry">
                        <mxPoint x="420" y="640" as="sourcePoint"/>
                        <mxPoint x="420" y="680" as="targetPoint"/>
                    </mxGeometry>
                </mxCell>
                <mxCell id="6" value="1" style="text;html=1;align=center;verticalAlign=middle;resizable=0;points=[];autosize=1;" vertex="1" parent="1">
                    <mxGeometry x="420" y="480" width="20" height="20" as="geometry"/>
                </mxCell>
                <mxCell id="7" value="1" style="text;html=1;align=center;verticalAlign=middle;resizable=0;points=[];autosize=1;" vertex="1" parent="1">
                    <mxGeometry x="420" y="500" width="20" height="20" as="geometry"/>
                </mxCell>
                <mxCell id="9" value="1" style="text;html=1;align=center;verticalAlign=middle;resizable=0;points=[];autosize=1;" vertex="1" parent="1">
                    <mxGeometry x="420" y="640" width="20" height="20" as="geometry"/>
                </mxCell>
                <mxCell id="10" value="*" style="text;html=1;align=center;verticalAlign=middle;resizable=0;points=[];autosize=1;" vertex="1" parent="1">
                    <mxGeometry x="420" y="660" width="20" height="20" as="geometry"/>
                </mxCell>
                <mxCell id="12" style="edgeStyle=orthogonalEdgeStyle;rounded=0;orthogonalLoop=1;jettySize=auto;html=1;exitX=0.5;exitY=1;exitDx=0;exitDy=0;entryX=0.5;entryY=0;entryDx=0;entryDy=0;endArrow=none;endFill=0;" edge="1" parent="1">
                    <mxGeometry relative="1" as="geometry">
                        <mxPoint x="420" y="320" as="sourcePoint"/>
                        <mxPoint x="420" y="360" as="targetPoint"/>
                    </mxGeometry>
                </mxCell>
                <mxCell id="13" value="1" style="text;html=1;align=center;verticalAlign=middle;resizable=0;points=[];autosize=1;" vertex="1" parent="1">
                    <mxGeometry x="420" y="320" width="20" height="20" as="geometry"/>
                </mxCell>
                <mxCell id="14" value="2" style="text;html=1;align=center;verticalAlign=middle;resizable=0;points=[];autosize=1;" vertex="1" parent="1">
                    <mxGeometry x="420" y="340" width="20" height="20" as="geometry"/>
                </mxCell>
                <mxCell id="16" value="" style="shape=internalStorage;whiteSpace=wrap;html=1;backgroundOutline=1;dx=0;dy=20;" vertex="1" parent="1">
                    <mxGeometry x="340" y="200" width="160" height="120" as="geometry"/>
                </mxCell>
                <mxCell id="17" value="Game" style="text;html=1;align=center;verticalAlign=middle;resizable=0;points=[];autosize=1;" vertex="1" parent="1">
                    <mxGeometry x="395" y="200" width="50" height="20" as="geometry"/>
                </mxCell>
                <mxCell id="18" value="attack(type, coordinate)&lt;br&gt;&amp;nbsp; &amp;nbsp; returns &quot;hit&quot;, &quot;miss&quot;, &lt;br&gt;&amp;nbsp; &amp;nbsp; &quot;sunk&quot;, &quot;game over&quot;&lt;br&gt;&lt;br&gt;position(ship, coordinate)&lt;br&gt;&amp;nbsp; &amp;nbsp; returns &quot;valid&quot;, &quot;invalid&quot;" style="text;html=1;align=left;verticalAlign=middle;resizable=0;points=[];autosize=1;" vertex="1" parent="1">
                    <mxGeometry x="350" y="220" width="150" height="90" as="geometry"/>
                </mxCell>
                <mxCell id="26" style="edgeStyle=orthogonalEdgeStyle;rounded=0;orthogonalLoop=1;jettySize=auto;html=1;exitX=1;exitY=0.5;exitDx=0;exitDy=0;entryX=0;entryY=0.5;entryDx=0;entryDy=0;endArrow=none;endFill=0;" edge="1" parent="1" source="21" target="16">
                    <mxGeometry relative="1" as="geometry"/>
                </mxCell>
                <mxCell id="21" value="" style="shape=internalStorage;whiteSpace=wrap;html=1;backgroundOutline=1;dx=0;dy=20;" vertex="1" parent="1">
                    <mxGeometry x="110" y="205" width="160" height="110" as="geometry"/>
                </mxCell>
                <mxCell id="22" value="Server" style="text;html=1;align=center;verticalAlign=middle;resizable=0;points=[];autosize=1;" vertex="1" parent="1">
                    <mxGeometry x="165" y="205" width="50" height="20" as="geometry"/>
                </mxCell>
                <mxCell id="23" value="broadcast: &lt;br&gt;&amp;nbsp; &amp;nbsp; attack() result" style="text;html=1;align=left;verticalAlign=middle;resizable=0;points=[];autosize=1;" vertex="1" parent="1">
                    <mxGeometry x="180" y="225" width="100" height="30" as="geometry"/>
                </mxCell>
                <mxCell id="25" value="input: &lt;br&gt;&amp;nbsp; &amp;nbsp; player attack()&lt;br&gt;&amp;nbsp; &amp;nbsp; &amp;nbsp; type &amp;amp; &lt;br&gt;&amp;nbsp; &amp;nbsp; &amp;nbsp; coordinate" style="text;html=1;align=left;verticalAlign=middle;resizable=0;points=[];autosize=1;" vertex="1" parent="1">
                    <mxGeometry x="110" y="250" width="100" height="60" as="geometry"/>
                </mxCell>
                <mxCell id="27" value="1" style="text;html=1;align=center;verticalAlign=middle;resizable=0;points=[];autosize=1;" vertex="1" parent="1">
                    <mxGeometry x="270" y="240" width="20" height="20" as="geometry"/>
                </mxCell>
                <mxCell id="28" value="*" style="text;html=1;align=center;verticalAlign=middle;resizable=0;points=[];autosize=1;" vertex="1" parent="1">
                    <mxGeometry x="320" y="240" width="20" height="20" as="geometry"/>
                </mxCell>
                <mxCell id="35" value="" style="shape=internalStorage;whiteSpace=wrap;html=1;backgroundOutline=1;dx=0;dy=20;" vertex="1" parent="1">
                    <mxGeometry x="340" y="360" width="160" height="120" as="geometry"/>
                </mxCell>
                <mxCell id="36" value="Board" style="text;html=1;align=center;verticalAlign=middle;resizable=0;points=[];autosize=1;" vertex="1" parent="1">
                    <mxGeometry x="395" y="360" width="50" height="20" as="geometry"/>
                </mxCell>
                <mxCell id="37" value="attack(type, coordinate)&lt;br&gt;&amp;nbsp; &amp;nbsp; returns &quot;hit&quot;, &quot;miss&quot;, &lt;br&gt;&amp;nbsp; &amp;nbsp; &quot;sunk&quot;, &quot;game over&quot;&lt;br&gt;&lt;br&gt;position(ship, coordinate)&lt;br&gt;&amp;nbsp; &amp;nbsp; returns &quot;valid&quot;, &quot;invalid&quot;" style="text;html=1;align=left;verticalAlign=middle;resizable=0;points=[];autosize=1;" vertex="1" parent="1">
                    <mxGeometry x="350" y="380" width="150" height="90" as="geometry"/>
                </mxCell>
                <mxCell id="38" value="" style="shape=internalStorage;whiteSpace=wrap;html=1;backgroundOutline=1;dx=0;dy=20;" vertex="1" parent="1">
                    <mxGeometry x="340" y="520" width="160" height="120" as="geometry"/>
                </mxCell>
                <mxCell id="39" value="Fleet" style="text;html=1;align=center;verticalAlign=middle;resizable=0;points=[];autosize=1;" vertex="1" parent="1">
                    <mxGeometry x="400" y="520" width="40" height="20" as="geometry"/>
                </mxCell>
                <mxCell id="40" value="attack(type, coordinate)&lt;br&gt;&amp;nbsp; &amp;nbsp; returns &quot;hit&quot;, &quot;miss&quot;, &lt;br&gt;&amp;nbsp; &amp;nbsp; &quot;sunk&quot;, &quot;game over&quot;&lt;br&gt;&lt;br&gt;position(ship, coordinate)&lt;br&gt;&amp;nbsp; &amp;nbsp; returns &quot;valid&quot;, &quot;invalid&quot;" style="text;html=1;align=left;verticalAlign=middle;resizable=0;points=[];autosize=1;" vertex="1" parent="1">
                    <mxGeometry x="350" y="540" width="150" height="90" as="geometry"/>
                </mxCell>
                <mxCell id="46" value="" style="shape=internalStorage;whiteSpace=wrap;html=1;backgroundOutline=1;dx=0;dy=20;" vertex="1" parent="1">
                    <mxGeometry x="340" y="680" width="160" height="120" as="geometry"/>
                </mxCell>
                <mxCell id="47" value="Ship" style="text;html=1;align=center;verticalAlign=middle;resizable=0;points=[];autosize=1;" vertex="1" parent="1">
                    <mxGeometry x="400" y="680" width="40" height="20" as="geometry"/>
                </mxCell>
                <mxCell id="48" value="attack(coordinate)&lt;br&gt;&amp;nbsp; &amp;nbsp; returns &quot;hit&quot;, &quot;miss&quot;,&lt;br&gt;&amp;nbsp; &amp;nbsp; &quot;sunk&quot;&lt;br&gt;&lt;br&gt;position(coordinate)&lt;br&gt;&amp;nbsp; &amp;nbsp; returns nothing" style="text;html=1;align=left;verticalAlign=middle;resizable=0;points=[];autosize=1;" vertex="1" parent="1">
                    <mxGeometry x="345" y="700" width="130" height="90" as="geometry"/>
                </mxCell>
            </root>
        </mxGraphModel>
    </diagram>
</mxfile>